<?xml version="1.0" encoding="utf-8"?>
<!-- Generator: Adobe Illustrator 28.0.0, SVG Export Plug-In . SVG Version: 6.00 Build 0)  -->
<svg version="1.1" xmlns="http://www.w3.org/2000/svg" xmlns:xlink="http://www.w3.org/1999/xlink" x="0px" y="0px"
	 viewBox="0 0 512 478.74" style="enable-background:new 0 0 512 478.74;" xml:space="preserve">
<style type="text/css">
	.st0{fill:#F1F1F1;}
	.st1{fill:#27497D;}
	.st2{fill:none;stroke:#27497D;stroke-miterlimit:10;}
</style>
<g id="Capa_1">
</g>
<g id="Rectangle">
	<g>
		<path class="st0" d="M418.57,450.08H33.51c-17.91,0-32.43-14.52-32.43-32.43V34.33c0-17.91,14.52-32.43,32.43-32.43h385.06
			c17.91,0,32.43,14.52,32.43,32.43v383.33C451,435.57,436.48,450.08,418.57,450.08z"/>
	</g>
	<path class="st1" d="M411.86,1.64H40.55c-21.43,0-38.87,17.44-38.87,38.87v371.31c0,21.43,17.44,38.87,38.87,38.87h214.89
		c-0.02-0.31-0.03-0.62-0.03-0.94v-1.75H40.55c-19.96,0-36.19-16.24-36.19-36.19V40.52c0-19.96,16.24-36.19,36.19-36.19h371.31
		c19.96,0,36.19,16.24,36.19,36.19v271.66c0.9,0.01,1.8,0.07,2.68,0.19V40.52C450.73,19.08,433.29,1.64,411.86,1.64z"/>
	<path class="st1" d="M276.23,164.92v0.42c0,17.21-5.07,30.49-15.23,39.87c-10.15,9.38-24.4,14.06-42.72,14.06h-43.15V110.98h43.15
		c18.33,0,32.57,4.62,42.72,13.85C271.15,134.07,276.23,147.43,276.23,164.92z"/>
	<path class="st1" d="M411.86,16.39H40.55c-13.31,0-24.13,10.82-24.13,24.13v371.31c0,13.31,10.82,24.13,24.13,24.13h214.87v-37.47
		c0-6.09,2.6-11.91,7.13-15.98l12.04-10.79c-4.21-0.43-7.63-1.21-10.22-2.34c-1.5-0.65-2.77-1.73-3.68-3.11
		c-0.9-1.39-1.38-2.98-1.38-4.63c0-1.82,0.6-3.61,1.68-5.06c1.8-2.4,7.13-8.01,17.54-8.01h6.07c2.84,0,5.41,1.17,7.26,3.04
		l13.94-27.68c3.65-7.25,10.95-11.75,19.07-11.75h111.11V40.52C435.99,27.21,425.16,16.39,411.86,16.39z M341.16,165.13
		c0,20.87-4.48,39.13-13.43,54.78c-8.96,15.65-21.47,27.81-37.54,36.48c-16.07,8.67-34.83,13.01-56.26,13.01h-58.8v122.72h-63.88
		V60.22h122.68c21.43,0,40.18,4.34,56.26,13.01c16.07,8.67,28.59,20.83,37.54,36.48c8.95,15.65,13.43,33.98,13.43,54.99V165.13z"/>
	<polygon class="st0" points="386.36,321.81 317.18,321.81 295.32,366.47 265.39,393.29 265.39,456.97 507.93,456.97 507.93,391.88 
		475.86,363.33 454.48,321.81 	"/>
	<rect x="255.43" y="448.71" class="st2" width="5.3" height="1.29"/>
	<rect x="448.05" y="312.06" class="st1" width="2.7" height="5.89"/>
	<path class="st1" d="M506.58,386.49l-18-16.13l0.69-2.1c0.3-0.91,1.14-1.52,2.09-1.54c8.37-0.13,12.7-1.33,14.82-2.26
		c0.56-0.24,1.02-0.65,1.34-1.14c0.32-0.49,0.5-1.08,0.5-1.69c0-0.66-0.21-1.31-0.61-1.84c-1.39-1.85-5.31-5.87-13.25-5.87h-6.07
		c-2.67,0-4.83,2.16-4.83,4.83v6.85l-2.52-2.26l-18.64-37c-2.72-5.39-8.24-8.8-14.28-8.8H324.88c-6.04,0-11.57,3.4-14.28,8.8
		l-18.63,37l-2.52,2.27v-6.85c0-2.66-2.16-4.83-4.83-4.83h-6.07c-7.94,0-11.86,4.02-13.25,5.87c-0.4,0.53-0.61,1.17-0.61,1.84
		c0,0.61,0.18,1.2,0.5,1.69c0.32,0.49,0.78,0.89,1.34,1.14c2.12,0.93,6.45,2.13,14.82,2.26c0.95,0.02,1.79,0.63,2.09,1.54l0.69,2.1
		l-18,16.13c-3.4,3.05-5.35,7.41-5.35,11.99v51.28c0,2.4,0.73,4.62,1.99,6.47v13.97c0,4.8,3.89,8.68,8.68,8.68h24.14
		c4.79,0,8.68-3.89,8.68-8.68v-8.95h164.16v8.95c0,4.8,3.89,8.68,8.68,8.68h24.14c4.79,0,8.68-3.89,8.68-8.68v-13.97
		c1.26-1.84,1.99-4.07,1.99-6.47v-51.28C511.93,393.9,509.99,389.54,506.58,386.49z M317.82,329.97c1.35-2.68,4.06-4.35,7.06-4.35
		h48.21c0.69,0,1.31,0.43,1.54,1.08l1.02,2.81c0.4,1.1,1.45,1.84,2.62,1.84h16.16c1.17,0,2.22-0.73,2.62-1.84l1.02-2.81
		c0.24-0.65,0.85-1.08,1.54-1.08h48.2c3,0,5.71,1.66,7.06,4.35l16.81,33.36H301.02L317.82,329.97z M439.22,407.53l3.94,5.21h-113.6
		l3.94-5.21H439.22z M334.72,405.91l1.68-2.23c1.41-1.87,3.65-2.98,5.99-2.98h87.92c2.34,0,4.58,1.12,5.99,2.98l1.68,2.23H334.72z
		 M444.38,414.35l3.16,4.18c0.25,0.33,0.45,0.67,0.6,1.03H324.57c0.16-0.36,0.35-0.7,0.6-1.03l3.16-4.18H444.38z M308.29,451.07
		h-28.66c-3.05,0-5.61-2.32-5.89-5.36l-0.4-4.25c-0.34-3.56,2.54-6.61,6.12-6.47l22.88,0.87c2.5,0.1,4.66,1.75,5.42,4.13l2.61,8.25
		C310.81,449.64,309.76,451.07,308.29,451.07z M310.08,409.35h-34.43c-3,0-5.43-2.43-5.43-5.43v-5.2c0-3,2.43-5.43,5.43-5.43h47.37
		c1.8,0,3.13,1.66,2.75,3.42c-0.66,3.06-2.2,5.8-4.34,7.94C318.53,407.55,314.52,409.35,310.08,409.35z M442.78,448.53
		c0,1.4-1.14,2.54-2.54,2.54H332.47c-1.4,0-2.54-1.13-2.54-2.54v-5.25c0-1.4,1.14-2.53,2.54-2.53h107.77c1.4,0,2.54,1.13,2.54,2.53
		V448.53z M448.02,423.67c-0.85,1.7-2.49,2.72-4.39,2.72H329.08c-1.9,0-3.54-1.02-4.39-2.72c-0.4-0.8-0.57-1.65-0.51-2.49h124.35
		C448.58,422.02,448.42,422.87,448.02,423.67z M446.94,396.71c-0.38-1.76,0.95-3.42,2.75-3.42h47.37c3,0,5.43,2.43,5.43,5.43v5.2
		c0,3-2.43,5.43-5.43,5.43h-34.43c-4.43,0-8.45-1.8-11.35-4.7C449.14,402.51,447.6,399.77,446.94,396.71z M464.42,451.07
		c-1.47,0-2.52-1.43-2.08-2.84l2.61-8.25c0.76-2.38,2.92-4.03,5.42-4.13l22.88-0.87c3.58-0.13,6.45,2.91,6.12,6.47l-0.4,4.25
		c-0.29,3.04-2.84,5.36-5.89,5.36H464.42z"/>
</g>
</svg>
